<?xml version="1.0" standalone="no"?>
<!DOCTYPE svg PUBLIC "-//W3C//DTD SVG 20010904//EN"
 "http://www.w3.org/TR/2001/REC-SVG-20010904/DTD/svg10.dtd">
<svg version="1.0" xmlns="http://www.w3.org/2000/svg"
 width="700.000000pt" height="700.000000pt" viewBox="0 0 700.000000 700.000000"
 preserveAspectRatio="xMidYMid meet">

<g transform="translate(0.000000,700.000000) scale(0.100000,-0.100000)"
fill="#000000" stroke="none">
<path d="M3210 6454 c-194 -33 -356 -93 -480 -177 -68 -47 -169 -146 -205
-202 -34 -54 -67 -135 -71 -175 -8 -74 -24 -269 -24 -292 0 -16 8 -36 18 -46
9 -9 28 -40 41 -69 l23 -51 -40 -58 c-110 -161 -268 -307 -652 -599 -255 -194
-320 -247 -471 -382 -376 -335 -576 -651 -661 -1049 -20 -96 -23 -136 -23
-339 0 -246 7 -302 62 -485 51 -172 128 -320 256 -489 43 -58 91 -133 107
-167 28 -63 44 -82 55 -64 3 5 2 10 -3 10 -9 0 -35 50 -29 56 2 2 12 -5 22
-16 10 -11 22 -20 27 -20 6 0 -8 20 -30 45 -31 35 -45 64 -61 125 -29 107 -71
309 -71 343 0 15 -4 27 -10 27 -20 0 -2 -179 30 -298 11 -40 20 -76 20 -80 -1
-19 -98 146 -150 253 -78 162 -113 258 -146 400 -28 115 -29 131 -29 360 1
265 11 339 76 528 137 399 399 702 1024 1182 380 292 572 467 673 613 l50 72
28 -44 c16 -25 33 -42 38 -39 5 4 7 -1 2 -12 -10 -26 -26 -143 -26 -194 0
-115 -152 -304 -524 -651 -438 -408 -640 -708 -740 -1100 -42 -167 -56 -276
-56 -450 1 -294 67 -570 223 -920 36 -80 76 -172 91 -205 l26 -60 -145 148
c-223 228 -435 482 -435 520 0 9 -4 19 -10 22 -6 3 -10 -4 -10 -17 0 -47 128
-230 259 -370 84 -90 331 -315 338 -308 3 3 16 -16 29 -43 14 -26 29 -47 34
-47 5 0 -14 48 -42 107 -145 310 -265 704 -299 977 -17 139 -6 412 21 540 62
291 176 530 374 781 43 56 219 240 396 415 174 173 337 342 361 375 61 82 109
159 109 175 0 27 10 1 29 -72 21 -80 58 -162 96 -214 l23 -30 -29 4 c-29 4
-63 -13 -54 -28 6 -10 -58 -32 -91 -32 -13 0 -24 -4 -24 -8 0 -4 -14 -13 -30
-20 -17 -7 -29 -18 -27 -24 2 -6 -28 -33 -67 -59 -100 -69 -189 -144 -273
-229 -85 -87 -221 -253 -236 -288 -6 -14 -28 -62 -49 -108 -21 -45 -38 -87
-38 -92 0 -5 -6 -7 -14 -4 -11 4 -16 -7 -22 -42 -4 -26 -18 -72 -32 -102 -20
-44 -22 -58 -13 -78 6 -13 19 -24 29 -24 26 0 33 -9 20 -30 -20 -32 64 -133
180 -217 60 -43 62 -47 56 -78 -5 -28 2 -48 43 -122 27 -48 60 -113 72 -143
51 -120 153 -309 207 -378 30 -41 54 -74 52 -75 -2 -1 -28 -11 -58 -21 -168
-57 -270 -177 -270 -317 0 -59 23 -85 73 -81 52 5 177 31 244 51 l62 19 37
-97 c20 -53 61 -157 92 -231 l55 -135 8 -300 c7 -278 22 -519 36 -573 4 -19
12 -22 52 -22 25 1 63 7 84 14 20 8 37 10 37 5 0 -5 6 -9 13 -9 10 0 16 70 25
323 7 177 21 428 31 557 11 129 22 276 26 326 l6 91 -48 3 c-26 2 -62 4 -79 4
-21 1 -30 5 -27 13 7 17 -13 17 -24 1 -4 -7 -14 -45 -23 -85 l-15 -72 -48 117
c-27 64 -50 122 -53 127 -2 6 30 27 71 48 75 39 114 71 148 120 10 15 27 27
38 27 54 0 71 34 48 99 -9 26 -8 36 9 62 l19 31 7 -40 c23 -149 146 -47 146
122 l0 60 33 -32 c18 -18 40 -32 50 -32 26 0 39 36 32 85 l-7 44 33 0 c80 -1
341 66 351 90 2 4 28 19 59 33 56 26 56 26 52 4 -4 -19 -3 -19 16 4 14 17 6
-9 -24 -85 -42 -103 -54 -162 -38 -179 4 -4 15 13 24 36 15 36 18 39 18 17 1
-14 6 -40 12 -58 16 -46 -18 -248 -43 -262 -28 -15 -21 -35 15 -49 17 -6 44
-18 59 -26 14 -8 52 -14 85 -14 54 0 269 -32 277 -41 1 -2 -10 -60 -25 -129
-16 -69 -29 -138 -29 -155 -1 -52 -18 -6 -36 96 -9 52 -18 96 -20 99 -6 5 -78
2 -116 -6 -36 -7 -36 -16 2 -224 82 -444 160 -972 160 -1077 0 -19 -7 -41 -15
-50 -8 -8 -13 -19 -10 -24 8 -12 175 -12 175 0 0 5 -29 14 -65 21 l-65 12 0
117 c0 138 -18 292 -65 566 -34 196 -109 579 -120 616 -5 16 -1 19 27 19 18 0
43 3 56 6 20 6 22 3 22 -28 0 -42 36 -188 50 -202 13 -13 13 -83 1 -90 -11 -7
-2 -46 10 -46 5 0 9 3 9 6 0 4 63 367 77 445 4 24 8 25 41 19 21 -3 53 -17 73
-30 l35 -23 -28 -100 c-15 -55 -40 -158 -55 -231 -28 -130 -28 -134 -27 -491
0 -267 5 -389 16 -473 15 -104 22 -132 32 -121 2 2 0 45 -5 94 -4 50 -8 246
-8 437 -1 383 5 452 63 713 29 132 35 150 52 148 10 -1 46 -8 79 -14 111 -21
116 -20 131 31 19 64 -1 127 -65 206 l-49 62 40 18 c21 10 50 30 62 45 l24 28
31 -88 c57 -160 120 -238 170 -211 25 13 35 63 28 145 l-5 64 24 -15 c54 -36
122 15 95 72 -13 30 -33 31 -31 2 6 -67 -19 -77 -77 -32 -18 14 -33 21 -34 17
0 -4 0 -53 1 -109 1 -75 -2 -103 -13 -112 -29 -24 -99 87 -147 233 -13 39 -25
72 -26 74 -2 2 -29 -17 -61 -42 -64 -49 -93 -62 -123 -52 -23 7 -26 40 -8 80
12 27 27 32 46 13 6 -6 15 -9 18 -5 4 4 -3 15 -15 24 l-22 18 24 43 c13 23 27
39 30 36 4 -4 12 -2 20 4 21 18 98 35 158 36 48 1 59 -3 81 -26 30 -33 50 -38
22 -7 -19 22 -19 22 6 14 95 -28 320 -159 320 -185 0 -14 -36 -12 -97 4 -29 8
-53 11 -53 6 0 -15 27 -30 77 -41 110 -26 138 19 56 90 -51 46 -130 87 -243
129 l-75 28 -17 172 c-9 94 -28 228 -42 298 -14 69 -25 128 -24 132 1 4 -2 14
-5 22 -4 8 -15 40 -26 70 -12 36 -24 55 -34 54 -9 -1 -33 32 -63 85 -98 177
-328 522 -471 710 -36 45 -63 84 -61 85 2 1 36 15 76 30 40 15 106 50 147 77
l75 49 0 -28 c0 -32 -18 -160 -26 -184 -3 -10 -1 -18 5 -18 6 0 15 18 21 40 6
21 39 87 75 145 74 122 100 187 125 305 l17 84 12 -98 c26 -203 99 -438 206
-663 78 -162 138 -266 320 -548 238 -368 316 -525 356 -720 37 -180 17 -435
-51 -648 -51 -160 -76 -207 -95 -177 -4 6 -11 8 -16 4 -6 -3 0 -15 13 -27 l23
-22 55 36 c145 96 273 319 334 582 19 80 -2 69 -25 -14 -24 -89 -99 -257 -156
-353 -45 -75 -157 -206 -167 -195 -3 2 16 55 40 117 151 375 148 656 -7 992
-56 119 -112 214 -272 458 -272 416 -398 666 -476 945 -48 169 -85 431 -61
425 7 -2 15 3 17 10 3 6 0 12 -7 12 -6 0 -8 5 -3 13 4 6 12 41 18 77 11 60 12
63 24 42 10 -18 10 -26 0 -38 -6 -8 -8 -18 -4 -22 4 -4 10 -1 12 6 3 7 34 -46
69 -118 123 -253 252 -453 579 -895 413 -558 583 -846 689 -1165 62 -187 81
-309 73 -475 -4 -71 -15 -168 -24 -215 -17 -79 -24 -93 -103 -204 -106 -149
-215 -263 -258 -272 -34 -7 -44 -24 -14 -24 52 0 176 111 263 234 27 38 49 66
49 62 0 -3 -16 -38 -35 -76 -19 -39 -31 -70 -25 -70 12 0 86 145 111 218 10
29 39 89 64 134 25 44 43 83 40 86 -6 7 -7 5 -35 -38 -12 -19 -20 -27 -17 -18
4 9 13 66 22 125 50 338 -108 782 -463 1303 -47 69 -185 260 -307 425 -339
459 -476 667 -597 910 l-55 110 31 46 c17 26 46 78 65 117 31 63 36 69 47 54
30 -39 10 18 -65 182 -44 96 -81 180 -82 187 -1 8 1 35 5 60 10 57 -12 151
-49 208 -57 91 -154 156 -248 168 -23 3 -55 12 -70 20 -16 8 -38 15 -50 16
-12 1 -92 37 -177 79 -257 127 -405 167 -635 173 -82 2 -161 2 -175 -1z m-371
-751 c57 -206 73 -274 67 -280 -3 -4 -8 -4 -9 -2 -5 6 -104 363 -118 425 -7
29 -9 60 -4 70 5 14 11 3 20 -43 8 -34 27 -110 44 -170z m-149 203 c0 -3 -4
-8 -10 -11 -5 -3 -10 -1 -10 4 0 6 5 11 10 11 6 0 10 -2 10 -4z m78 -137 c31
-102 35 -137 13 -113 -4 5 -15 36 -25 69 -9 33 -23 81 -31 108 -10 35 -11 47
-2 47 7 0 27 -50 45 -111z m-54 39 c30 -107 37 -140 31 -146 -11 -11 -23 14
-44 94 -23 90 -25 104 -12 104 5 0 16 -24 25 -52z m1579 -45 c59 -63 118 -135
132 -163 9 -17 23 -30 32 -30 9 0 46 -24 82 -54 36 -29 84 -65 105 -80 l39
-26 -49 0 c-27 0 -68 9 -91 19 -23 11 -43 15 -45 10 -2 -6 -24 -3 -53 6 -57
17 -65 18 -65 7 0 -4 27 -18 60 -30 33 -13 65 -32 70 -42 5 -10 15 -70 21
-133 12 -106 11 -117 -5 -142 l-18 -28 -26 34 c-14 19 -46 55 -72 80 -25 25
-66 73 -90 107 -23 34 -47 62 -53 62 -5 0 -2 -11 7 -25 9 -13 28 -46 42 -72
15 -26 30 -52 35 -57 5 -6 9 -14 9 -19 0 -4 -23 14 -50 41 -28 28 -75 63 -105
78 -30 16 -55 35 -55 42 0 32 -20 6 -35 -45 -23 -84 -32 -103 -52 -103 -17 -1
-17 -2 0 -15 18 -13 18 -17 -8 -107 -33 -111 -117 -338 -126 -338 -3 0 -11 47
-17 105 -20 178 -112 502 -168 588 -31 47 -41 42 -22 -8 l13 -37 -48 -44 c-80
-72 -145 -104 -213 -104 -66 0 -104 -8 -104 -21 0 -5 15 -9 33 -9 23 -1 28 -3
17 -9 -24 -14 -279 -88 -344 -100 -33 -6 -62 -13 -64 -16 -12 -12 8 -13 68 -5
119 17 110 25 110 -90 0 -169 53 -370 136 -513 25 -44 43 -81 41 -83 -2 -3
-17 0 -32 6 -15 6 -35 8 -45 5 -22 -7 -195 170 -269 275 -72 101 -131 224
-131 272 0 45 -15 51 -23 9 -13 -66 52 -216 153 -349 76 -101 182 -200 322
-299 59 -42 108 -80 108 -85 0 -9 -70 -108 -76 -108 -17 0 -68 48 -151 143
-53 60 -108 117 -122 125 -14 8 -46 41 -71 74 -28 37 -71 77 -115 106 -91 61
-115 82 -115 102 0 47 -39 108 -40 63 -1 -16 -2 -16 -16 2 -48 62 -105 212
-119 314 -7 49 -6 53 11 47 11 -3 46 -1 78 4 67 11 76 8 58 -20 -22 -36 -12
-44 19 -14 41 39 86 109 153 236 58 108 67 138 41 138 -10 0 -15 11 -15 35 0
20 -13 77 -30 127 -36 109 -36 112 -8 97 29 -16 530 -6 788 16 189 16 431 48
485 64 48 15 60 13 88 -16z m260 -53 c-7 -28 -13 -25 -13 6 0 14 4 23 9 20 5
-3 7 -15 4 -26z m-1895 -18 c2 -7 -6 -12 -17 -12 -21 0 -27 11 -14 24 9 9 26
2 31 -12z m1861 -14 c10 -27 2 -46 -10 -27 -10 15 -12 49 -4 49 3 0 9 -10 14
-22z m151 -203 c0 -5 -6 -3 -14 5 -17 17 -86 176 -85 193 1 13 98 -182 99
-198z m-2004 157 c23 -15 24 -62 3 -139 -12 -43 -23 -84 -25 -92 -4 -11 -7
-11 -19 -1 -20 17 -31 6 -12 -11 14 -14 12 -49 -4 -49 -4 0 -20 20 -35 45
l-26 45 21 53 c11 28 23 64 26 80 14 75 15 77 38 77 12 0 27 -4 33 -8z m1899
-24 c5 4 5 1 1 -6 -9 -15 2 -54 14 -47 5 3 14 -5 20 -17 11 -22 11 -22 -5 -3
-9 11 -18 19 -20 18 -15 -8 -26 1 -39 30 -15 36 -9 59 9 34 7 -9 16 -13 20 -9z
m-1778 -74 c12 -43 23 -80 23 -81 0 -2 -4 -3 -10 -3 -5 0 -19 33 -30 73 -12
39 -23 78 -26 85 -2 8 1 12 8 10 7 -3 23 -40 35 -84z m53 -20 c21 -82 22 -96
10 -104 -23 -15 -34 -12 -20 5 13 16 9 39 -24 148 -12 36 -12 47 -3 47 8 0 23
-39 37 -96z m-114 -82 c17 -17 13 -34 -31 -122 -18 -36 -39 -83 -46 -105 l-13
-40 -8 35 c-9 40 7 135 28 165 8 11 14 27 14 37 0 10 8 37 18 60 17 42 17 42
20 14 2 -16 10 -36 18 -44z m94 1 c-1 -14 -30 -47 -36 -41 -8 8 14 48 26 48 6
0 10 -3 10 -7z m70 -58 c0 -15 -115 -245 -122 -245 -13 0 -3 26 53 146 26 57
53 104 59 104 5 0 10 -2 10 -5z m1796 -7 c-1 -7 -5 -19 -10 -26 -4 -7 -5 -16
-2 -19 3 -3 0 -13 -6 -21 -7 -8 -25 -42 -39 -74 -15 -33 -29 -54 -31 -47 -3 8
6 38 19 68 29 65 25 76 -6 20 -32 -57 -36 -42 -6 22 14 30 25 59 25 66 0 6 10
14 23 16 12 2 25 5 29 6 3 0 5 -5 4 -11z m-1905 -115 c-45 -113 -49 -118 -78
-121 l-32 -3 19 38 c10 21 29 68 41 106 13 37 27 67 31 67 14 0 8 -30 -18 -93
-40 -95 -44 -107 -35 -107 5 0 18 28 31 63 41 113 68 165 87 167 1 0 -20 -53
-46 -117z m992 30 l16 -53 -64 0 c-99 0 -101 4 -37 68 32 31 60 53 63 47 4 -5
14 -34 22 -62z m515 -77 c47 -38 88 -64 90 -57 9 27 17 6 19 -50 2 -66 9 -82
23 -59 8 12 10 10 10 -7 0 -21 -5 -23 -50 -23 -27 0 -50 -4 -50 -9 0 -10 35
-21 71 -21 26 0 26 -2 22 -47 -3 -27 -9 -52 -13 -57 -5 -4 -24 -3 -44 4 -57
18 -66 5 -13 -21 26 -12 47 -28 47 -33 -1 -17 -38 -95 -61 -127 -11 -16 -28
-28 -37 -27 -12 2 -16 -3 -14 -18 2 -16 -13 -33 -60 -69 -107 -81 -258 -141
-452 -180 -66 -13 -70 -12 -98 8 l-28 21 -27 -25 c-23 -21 -40 -26 -95 -28
-122 -5 -117 -8 -182 146 -60 143 -100 271 -114 366 l-9 57 27 0 c37 0 130 29
130 40 0 14 -27 12 -93 -5 -32 -8 -60 -15 -62 -15 -3 0 -5 29 -5 64 l0 63 62
13 c34 6 105 28 158 47 90 33 103 35 227 37 l132 1 26 -110 c15 -60 37 -157
51 -215 13 -58 28 -119 33 -137 5 -19 5 -35 -1 -41 -6 -6 -6 -12 0 -16 21 -13
87 110 147 273 l43 114 3 -80 c3 -63 8 -86 23 -102 55 -60 123 42 102 153 -6
30 -56 96 -73 96 -13 0 -43 -34 -43 -48 0 -9 -2 -13 -5 -10 -3 3 0 26 7 52
l12 46 46 0 c56 0 123 18 115 31 -4 5 -39 9 -78 9 l-72 0 3 50 4 50 30 -18
c16 -9 69 -48 116 -86z m-1437 23 c-12 -19 -21 -30 -21 -26 0 14 31 69 36 64
3 -3 -4 -20 -15 -38z m1324 -159 c31 -61 9 -198 -26 -162 -25 24 -20 192 5
192 3 0 12 -13 21 -30z m322 -44 c-4 -12 -35 -32 -40 -26 -2 3 -7 28 -10 55
l-5 50 29 -35 c16 -19 28 -39 26 -44z m-30 -103 c-5 -32 -13 -62 -18 -67 -4
-5 -6 0 -4 10 2 10 7 40 10 67 3 26 10 47 14 47 4 0 4 -26 -2 -57z m-48 -190
c-22 -68 -104 -253 -112 -253 -2 0 -1 21 3 47 4 26 5 53 3 60 -3 7 11 32 31
56 35 43 85 139 87 167 0 10 2 11 6 3 2 -7 -5 -43 -18 -80z m-1736 -150 c-13
-2 -23 -10 -23 -16 -1 -7 -33 -34 -72 -62 -180 -127 -481 -423 -583 -575 -69
-103 -145 -236 -145 -254 0 -21 118 -153 206 -232 141 -126 429 -337 563 -412
36 -19 59 -38 53 -40 -13 -4 -223 116 -357 204 -167 110 -379 301 -448 404
-31 46 -36 49 -42 31 -9 -29 -28 -27 -20 2 16 53 107 227 151 287 132 180 327
386 501 529 85 69 196 141 218 139 17 -1 17 -1 -2 -5z m23 -56 c-172 -109
-446 -392 -696 -721 l-75 -98 86 -83 c139 -131 351 -296 596 -461 84 -56 82
-69 -4 -25 -141 71 -389 257 -585 438 -122 114 -151 156 -114 165 8 2 58 62
111 133 238 316 461 546 615 634 53 29 109 45 66 18z m103 -54 c0 -5 -53 -46
-116 -93 -186 -136 -511 -464 -604 -609 -28 -43 -28 -45 -11 -73 9 -16 71 -69
137 -118 239 -175 553 -434 537 -443 -4 -3 -97 67 -206 154 -167 132 -279 216
-463 344 -12 8 -28 33 -34 55 -12 38 -10 42 26 97 80 121 174 233 314 373 151
150 257 237 351 289 57 32 71 36 69 24z m543 -101 c36 -13 56 -30 82 -67 20
-27 33 -51 31 -53 -5 -5 -135 99 -155 123 -16 19 -15 19 42 -3z m710 -156
c114 -141 252 -342 373 -543 53 -90 101 -160 106 -157 12 7 37 -52 45 -103 3
-21 12 -65 19 -98 7 -33 26 -139 41 -235 15 -96 32 -178 38 -182 6 -5 7 -8 1
-8 -24 0 -32 20 -48 110 -10 52 -32 175 -51 272 -39 206 -19 165 -287 560
-189 279 -327 466 -369 502 -16 13 -26 27 -23 30 12 12 69 -43 155 -148z
m-533 118 c2 -1 -7 -17 -19 -34 -24 -34 -33 -31 -62 18 l-18 30 48 -6 c26 -2
49 -6 51 -8z m-1007 -561 c11 -13 17 -42 18 -98 2 -44 2 -84 1 -89 0 -5 -22
11 -48 35 -27 25 -61 54 -77 67 -32 25 -32 24 33 71 51 36 53 37 73 14z m1458
-98 c0 -6 -15 -18 -34 -26 l-34 -16 21 43 c18 39 22 41 33 26 8 -9 14 -22 14
-27z m-2170 -180 c0 -5 -5 -3 -10 5 -5 8 -10 20 -10 25 0 6 5 3 10 -5 5 -8 10
-19 10 -25z m1125 -355 c3 -5 1 -10 -4 -10 -6 0 -11 5 -11 10 0 6 2 10 4 10 3
0 8 -4 11 -10z m93 -94 c60 -64 137 -179 123 -184 -6 -2 -2 -15 8 -30 11 -15
22 -42 25 -60 l6 -34 -35 31 c-20 17 -39 31 -43 31 -4 0 -12 14 -17 32 -6 17
-16 34 -24 36 -11 4 -13 -3 -7 -34 17 -96 17 -179 -1 -228 -17 -47 -45 -77
-58 -64 -13 13 -27 152 -16 156 6 2 11 8 11 13 0 6 -4 7 -10 4 -5 -3 -12 6
-16 20 -10 39 -24 30 -24 -17 0 -27 -9 -57 -26 -86 l-27 -45 -17 34 c-9 19
-20 63 -23 99 -3 36 -13 84 -21 107 -19 53 -5 101 45 163 19 25 46 60 58 78
12 17 26 32 30 32 5 0 31 -24 59 -54z m1242 -83 c-4 -175 -1 -233 10 -233 6 0
10 9 10 20 0 18 2 19 20 8 11 -7 20 -23 20 -36 0 -12 7 -33 15 -46 14 -21 13
-27 -5 -69 l-21 -46 -89 47 c-89 47 -105 64 -73 76 13 5 14 9 5 15 -9 5 2 51
43 181 30 95 55 179 55 187 0 7 3 13 6 13 3 0 5 -53 4 -117z m-120 -129 c-12
-58 -50 -144 -63 -144 -5 0 -7 4 -5 8 2 4 19 49 38 100 19 50 36 90 37 88 2
-2 -1 -25 -7 -52z m-753 40 c-3 -3 -12 -4 -19 -1 -8 3 -5 6 6 6 11 1 17 -2 13
-5z m1296 -32 c3 -15 3 -29 1 -31 -7 -7 -33 33 -34 51 0 27 27 10 33 -20z
m-947 -4 c-18 -26 -22 -17 -5 14 6 11 13 17 16 15 3 -3 -2 -16 -11 -29z m-932
-63 c5 -22 4 -26 -4 -15 -5 8 -10 24 -10 34 0 26 6 18 14 -19z m1539 25 c8 0
7 -4 -1 -12 -9 -9 -16 -8 -30 6 -16 18 -16 19 1 12 10 -3 24 -6 30 -6z m34
-81 c9 -3 9 -9 3 -19 -9 -13 -11 -13 -20 0 -5 8 -10 22 -10 30 0 10 3 11 8 4
4 -6 12 -13 19 -15z m-323 -103 c-3 -9 -10 -13 -16 -10 -5 3 -4 12 3 20 15 18
22 13 13 -10z m-1194 -58 c0 -5 -4 -8 -10 -8 -5 0 -10 10 -10 23 0 18 2 19 10
7 5 -8 10 -18 10 -22z m1170 -47 c0 -12 -139 -141 -152 -141 -10 0 29 51 85
113 32 34 67 49 67 28z m-293 -38 c-3 -10 -5 -4 -5 12 0 17 2 24 5 18 2 -7 2
-21 0 -30z m353 28 c0 -13 -111 -133 -118 -127 -6 7 22 49 65 97 35 38 53 48
53 30z m97 -44 c-26 -39 -98 -117 -109 -117 -10 0 49 87 91 133 28 31 41 19
18 -16z m-461 -65 c-11 -10 -14 3 -8 33 l7 30 3 -28 c2 -16 1 -31 -2 -35z
m-1376 38 c0 -5 -5 -10 -11 -10 -5 0 -7 5 -4 10 3 6 8 10 11 10 2 0 4 -4 4
-10z m303 -70 c26 -18 47 -35 47 -37 0 -2 -8 -3 -19 -3 -23 0 -113 78 -105 91
3 6 11 4 17 -4 7 -8 33 -29 60 -47z m157 36 c0 -3 -4 -8 -10 -11 -5 -3 -10 -1
-10 4 0 6 5 11 10 11 6 0 10 -2 10 -4z m-262 -67 c29 -28 51 -54 48 -56 -10
-10 -126 81 -126 99 0 20 29 4 78 -43z m-88 -24 c66 -66 66 -86 1 -39 -38 28
-90 84 -91 97 -1 21 32 0 90 -58z m151 -142 c74 -225 208 -550 216 -526 6 17
-25 127 -59 212 -31 80 -33 117 -7 214 l10 37 67 -6 c37 -4 68 -7 68 -8 1 0
-2 -26 -7 -56 -39 -236 -83 -820 -78 -1023 l4 -147 -47 -2 c-27 -1 -56 -2 -65
-2 -24 -1 -28 35 -48 399 -8 160 -18 323 -20 364 -6 84 -42 200 -133 416 l-58
141 65 26 c36 14 67 26 68 27 1 0 11 -29 24 -66z"/>
<path d="M3140 5204 c-106 -34 -221 -91 -228 -112 -2 -7 13 -5 40 7 24 10 105
42 180 72 76 30 138 57 138 62 0 11 -18 7 -130 -29z"/>
<path d="M2702 5045 c6 -14 15 -25 20 -25 5 0 1 11 -8 25 -9 14 -18 25 -20 25
-2 0 2 -11 8 -25z"/>
<path d="M3660 5130 c-11 -11 -20 -23 -20 -27 0 -5 -4 -36 -9 -70 -12 -80 0
-131 39 -165 38 -35 60 -35 91 -2 20 21 24 38 27 99 5 99 -9 138 -59 164 -48
25 -45 25 -69 1z m75 -73 c33 -110 2 -207 -47 -148 -13 18 -18 40 -18 91 0
125 36 156 65 57z"/>
<path d="M3364 4864 c-48 -33 -49 -33 -42 -40 10 -9 98 37 98 52 0 20 -12 17
-56 -12z"/>
<path d="M3760 4642 c-19 -9 -43 -32 -53 -50 -27 -45 -16 -79 30 -99 35 -14
42 -13 122 11 55 16 104 25 136 23 58 -2 105 21 105 53 0 28 -36 43 -105 46
-33 1 -77 9 -97 18 -48 21 -94 20 -138 -2z m122 -22 c28 -8 36 -15 31 -27 -5
-14 0 -15 44 -9 28 3 61 2 74 -3 19 -8 12 -10 -38 -10 -33 -1 -90 -10 -125
-21 -108 -34 -156 -23 -128 30 12 21 61 49 90 50 8 0 32 -5 52 -10z"/>
<path d="M5663 2513 c25 -156 16 -283 -30 -427 -30 -97 -100 -248 -143 -312
-17 -26 -29 -51 -27 -57 5 -15 129 174 161 243 56 122 79 226 80 360 1 76 -4
146 -12 178 -16 60 -38 72 -29 15z"/>
</g>
</svg>
